<?xml version="1.0" encoding="UTF-8"?>
<svg xmlns="http://www.w3.org/2000/svg" viewBox="0 0 80 94" width="80" height="94">
  <path d="M 53.00,6.00 L 48.00,9.00 L 48.00,11.00 L 44.00,16.00 L 42.00,15.00 L 41.00,16.00 L 43.00,20.00 L 42.00,22.00 L 40.00,22.00 L 41.00,24.00 L 41.00,29.00 L 42.00,30.00 L 42.00,35.00 L 41.00,36.00 L 42.00,37.00 L 42.00,41.00 L 41.00,42.00 L 41.00,44.00 L 39.00,45.00 L 38.00,47.00 L 36.00,47.00 L 35.00,46.00 L 35.00,49.00 L 34.00,50.00 L 32.00,49.00 L 33.00,49.00 L 34.00,51.00 L 35.00,51.00 L 36.00,53.00 L 39.00,55.00 L 39.00,58.00 L 40.00,59.00 L 39.00,63.00 L 38.00,64.00 L 34.00,65.00 L 36.00,69.00 L 33.00,73.00 L 34.00,74.00 L 34.00,76.00 L 33.00,77.00 L 36.00,78.00 L 38.00,81.00 L 37.00,83.00 L 37.00,86.00 L 42.00,86.00 L 43.00,87.00 L 53.00,87.00 L 57.00,85.00 L 56.00,83.00 L 58.00,82.00 L 57.00,80.00 L 56.00,80.00 L 54.00,78.00 L 54.00,77.00 L 56.00,75.00 L 58.00,75.00 L 59.00,73.00 L 64.00,71.00 L 64.00,69.00 L 66.00,67.00 L 65.00,65.00 L 66.00,64.00 L 65.00,63.00 L 66.00,61.00 L 64.00,60.00 L 64.00,61.00 L 62.00,62.00 L 56.00,59.00 L 63.00,56.00 L 66.00,58.00 L 67.00,57.00 L 69.00,57.00 L 68.00,55.00 L 69.00,53.00 L 67.00,52.00 L 68.00,50.00 L 66.00,46.00 L 67.00,45.00 L 66.00,44.00 L 67.00,43.00 L 66.00,41.00 L 67.00,40.00 L 67.00,37.00 L 66.00,35.00 L 67.00,34.00 L 68.00,25.00 L 67.00,26.00 L 62.00,26.00 L 59.00,28.00 L 55.00,28.00 L 53.00,26.00 L 53.00,19.00 L 56.00,16.00 L 56.00,11.00 L 57.00,10.00 L 57.00,9.00 L 55.00,9.00 L 53.00,7.00 Z" fill="#2C4256" fill-rule="evenodd"/>
</svg>
